<svg width="200" height="200" fill="#000000" xmlns="http://www.w3.org/2000/svg" xmlns:xlink="http://www.w3.org/1999/xlink" version="1.1" x="0px" y="0px" viewBox="0 0 100 100" enable-background="new 0 0 100 100" xml:space="preserve"><g><path d="M50,95c24.813,0,45-20.187,45-45C95,25.188,74.813,5,50,5S5,25.188,5,50C5,74.813,25.187,95,50,95z M50.002,23.005   c7.802,0,14.149,6.348,14.149,14.15s-6.348,14.15-14.149,14.15c-7.803,0-14.152-6.348-14.152-14.15S42.199,23.005,50.002,23.005z    M22.086,78.367c0-14.387,10.957-23.683,27.916-23.683c16.956,0,27.912,9.296,27.912,23.683v1.182   C70.623,86.44,60.801,90.679,50,90.679s-20.623-4.238-27.914-11.13V78.367z"/></g></svg>