<svg width="200" height="200" fill="#000000" xmlns="http://www.w3.org/2000/svg" xmlns:xlink="http://www.w3.org/1999/xlink" version="1.1" x="0px" y="0px" viewBox="0 0 100 100" enable-background="new 0 0 100 100" xml:space="preserve"><path d="M50,73c6.617,0,12-5.383,12-12s-5.383-12-12-12s-12,5.383-12,12S43.383,73,50,73z M48.707,66.707  l-1.414-1.414l3-3l1.414,1.414L48.707,66.707z M55.707,59.707l-2,2l-1.414-1.414l2-2L55.707,59.707z M51.793,54.793l1.414,1.414  l-9,9l-1.414-1.414L51.793,54.793z"/><path d="M33,79h34c3.859,0,7-3.14,7-7V52c0-3.86-3.141-7-7-7h-8l-4-4v-3h9V20H36v18h9v3l-4,4h-8  c-3.859,0-7,3.14-7,7v20C26,75.86,29.141,79,33,79z M41,25v-1h18v1v3H41V25z M41,34v-1v-3h18v3v1H41z M50,47c7.72,0,14,6.28,14,14  s-6.28,14-14,14s-14-6.28-14-14S42.28,47,50,47z M32,51h3v2h-3V51z"/></svg>