<svg fill="#143e56" xmlns="http://www.w3.org/2000/svg" xmlns:xlink="http://www.w3.org/1999/xlink" xml:space="preserve" version="1.1" style="shape-rendering:geometricPrecision;text-rendering:geometricPrecision;image-rendering:optimizeQuality;" viewBox="0 0 1.091 1.473" x="0px" y="0px" fill-rule="evenodd" clip-rule="evenodd"><defs><style type="text/css">
   
    .fil0 {fill:none}
    .fil1 {fill:#143e56;fill-rule:nonzero}
   
  </style></defs><g><g><rect class="fil0" width="1.091" height="1.473"/><path class="fil1" d="M0.956 0.325c0,0.015 -0.012,0.027 -0.027,0.027 -0.015,0 -0.027,-0.012 -0.027,-0.027 0,-0.059 0.031,-0.094 0.061,-0.128 0.022,-0.025 0.044,-0.049 0.044,-0.081 0,-0.018 -0.006,-0.032 -0.017,-0.042 -0.013,-0.011 -0.032,-0.017 -0.053,-0.017 -0.014,0 -0.025,0.006 -0.033,0.015 -0.011,0.013 -0.017,0.031 -0.017,0.044 0,0.016 -0.012,0.028 -0.027,0.028 -0.015,0 -0.027,-0.012 -0.027,-0.028 0,-0.023 0.009,-0.056 0.031,-0.081 0.017,-0.019 0.041,-0.032 0.073,-0.032 0.034,0 0.066,0.01 0.089,0.03 0.022,0.02 0.036,0.048 0.036,0.083 0,0.053 -0.029,0.085 -0.058,0.118 -0.024,0.026 -0.048,0.053 -0.048,0.091zm-0.665 0.498c-0.091,0.032 -0.166,0.118 -0.216,0.216 -0.034,0.066 -0.057,0.139 -0.065,0.205 -0.008,0.063 -0.003,0.118 0.018,0.154 0.011,0.019 0.026,0.032 0.046,0.037 0.07,0.02 0.096,-0.004 0.106,-0.042 0.016,-0.056 0.015,-0.143 0.04,-0.218 0.005,-0.016 0.014,-0.03 0.03,-0.03 0.018,0 0.022,0.012 0.022,0.028l0 0.297 0.288 0 0.265 0c-0.011,-0.057 -0.008,-0.163 0.018,-0.263 0.019,-0.077 0.053,-0.151 0.103,-0.2 0.07,-0.067 0.119,-0.167 0.134,-0.259 0.007,-0.044 0.006,-0.086 -0.004,-0.121 -0.01,-0.031 -0.028,-0.057 -0.056,-0.071 -0.023,-0.013 -0.054,-0.018 -0.093,-0.014 0.001,0.009 0.001,0.018 0.001,0.027 0,0.102 -0.041,0.194 -0.107,0.261 -0.067,0.066 -0.159,0.108 -0.261,0.108l0 0.001c-0.102,0 -0.195,-0.042 -0.262,-0.109 -0.003,-0.002 -0.005,-0.005 -0.007,-0.007zm0.269 0.06c0.087,0 0.165,-0.035 0.222,-0.092 0.057,-0.057 0.092,-0.135 0.092,-0.222 0,-0.086 -0.035,-0.165 -0.092,-0.221 -0.057,-0.057 -0.135,-0.092 -0.222,-0.092 -0.086,0 -0.165,0.035 -0.222,0.092 -0.056,0.056 -0.091,0.135 -0.091,0.221 0,0.087 0.035,0.165 0.091,0.222 0.057,0.057 0.136,0.092 0.222,0.092zm0.103 -0.392c0.015,0 0.027,0.012 0.027,0.027 0,0.015 -0.012,0.027 -0.027,0.027 -0.015,0 -0.028,-0.012 -0.028,-0.027 0,-0.015 0.013,-0.027 0.028,-0.027zm-0.211 0.192l0.216 0c0.015,0 0.027,0.012 0.027,0.027 0,0.015 -0.012,0.027 -0.027,0.027l-0.216 0c-0.015,0 -0.027,-0.012 -0.027,-0.027 0,-0.015 0.012,-0.027 0.027,-0.027zm0.006 -0.192c0.015,0 0.027,0.012 0.027,0.027 0,0.015 -0.012,0.027 -0.027,0.027 -0.015,0 -0.028,-0.012 -0.028,-0.027 0,-0.015 0.013,-0.027 0.028,-0.027z"/></g></g></svg>