<svg width="200" height="200" fill="#2578cb" xmlns="http://www.w3.org/2000/svg" xmlns:xlink="http://www.w3.org/1999/xlink" xml:space="preserve" style="shape-rendering:geometricPrecision;text-rendering:geometricPrecision;image-rendering:optimizeQuality;" viewBox="0 0 6.82666 6.82666" x="0px" y="0px" fill-rule="evenodd" clip-rule="evenodd"><defs><style type="text/css">
   
    .fil0 {fill:#2578cb}
   
  </style></defs><g><path class="fil0" d="M5.49667 4.38942l-1.66517 -1.2149 -0.0345906 -0.0252362 0.00673622 -0.0419331c0.00553937,-0.0344961 0.00987402,-0.0707953 0.0129134,-0.108898 0.00284646,-0.0356654 0.00431496,-0.0721969 0.00431496,-0.109551 0,-0.361394 -0.139717,-0.688157 -0.365594,-0.924303 -0.225114,-0.235346 -0.536185,-0.380921 -0.879839,-0.380921 -0.100075,0 -0.197098,0.0122677 -0.28978,0.0354173 -0.0592008,0.0147913 -0.116831,0.0340591 -0.172559,0.0574528l0.504661 0.384835 0.0275787 0.0210354 0 0.0343937 0 0.712299 0 0.0504843 -0.0480551 0.0158661 -0.724268 0.239154 -0.0347795 0.0114882 -0.029378 -0.0224134 -0.473098 -0.360764 -0.000389764 0.00432283c-0.00354331,0.04 -0.00536614,0.0805827 -0.00536614,0.121654 0,0.361394 0.139713,0.688157 0.365591,0.924299 0.225118,0.23535 0.536189,0.380917 0.879843,0.380917 0.10452,0 0.205449,-0.0132756 0.301374,-0.0382638 0.099437,-0.0259094 0.194228,-0.0643937 0.282728,-0.113728l0.0388031 -0.0216339 0.0360118 0.0262756 1.63956 1.19622 0.62276 -0.853567z"/><path class="fil0" d="M3.41333 -3.93701e-006c1.88513,0 3.41333,1.5282 3.41333,3.41333 0,1.88513 -1.5282,3.41333 -3.41333,3.41333 -1.88513,0 -3.41333,-1.5282 -3.41333,-3.41333 0,-1.88514 1.5282,-3.41333 3.41333,-3.41333zm0 0.341437c1.69656,0 3.0719,1.37533 3.0719,3.0719 0,1.69656 -1.37533,3.0719 -3.0719,3.0719 -1.69656,0 -3.0719,-1.37533 -3.0719,-3.0719 0,-1.69657 1.37533,-3.0719 3.0719,-3.0719z"/></g></svg>