<svg width="200" height="200" fill="#EC5D57" xmlns:dc="http://purl.org/dc/elements/1.1/" xmlns:cc="http://creativecommons.org/ns#" xmlns:rdf="http://www.w3.org/1999/02/22-rdf-syntax-ns#" xmlns:svg="http://www.w3.org/2000/svg" xmlns="http://www.w3.org/2000/svg" xmlns:sodipodi="http://sodipodi.sourceforge.net/DTD/sodipodi-0.dtd" xmlns:inkscape="http://www.inkscape.org/namespaces/inkscape" version="1.1" x="0px" y="0px" viewBox="0 0 100 100" enable-background="new 0 0 32 32" xml:space="preserve"><path style="font-size:medium;font-style:normal;font-variant:normal;font-weight:normal;font-stretch:normal;text-indent:0;text-align:start;text-decoration:none;line-height:normal;letter-spacing:normal;word-spacing:normal;text-transform:none;direction:ltr;block-progression:tb;writing-mode:lr-tb;text-anchor:start;baseline-shift:baseline;opacity:1;color:#000000;fill:#EC5D57;fill-opacity:1;stroke:none;stroke-width:4;marker:none;visibility:visible;display:inline;overflow:visible;enable-background:accumulate;font-family:Sans;-inkscape-font-specification:Sans" d="M 18.8125 6 A 2.0002 2.0002 0 0 0 17 8 L 17 92 A 2.0002 2.0002 0 0 0 19 94 L 81 94 A 2.0002 2.0002 0 0 0 83 92 L 83 30 A 2.0002 2.0002 0 0 0 82.40625 28.59375 L 60.40625 6.59375 A 2.0002 2.0002 0 0 0 59 6 L 19 6 A 2.0002 2.0002 0 0 0 18.8125 6 z M 21 10 L 57 10 L 57 30 A 2.0001996 2.0001996 0 0 0 59 32 L 79 32 L 79 90 L 21 90 L 21 10 z M 61 12.8125 L 76.1875 28 L 61 28 L 61 12.8125 z M 50 33 C 40.634848 33 33 40.63485 33 50 C 33 59.365151 40.634848 67 50 67 C 59.365151 67 67 59.365151 67 50 C 67 40.634849 59.365152 33 50 33 z M 50 37 C 57.20339 37 63 42.796611 63 50 C 63 57.203391 57.203391 63 50 63 C 42.796608 63 37 57.203391 37 50 C 37 42.79661 42.796608 37 50 37 z M 43.75 41.5 A 2.0002 2.0002 0 0 0 42 43.5 L 42 56.5 A 2.0002 2.0002 0 0 0 44.84375 58.3125 L 59.84375 51.3125 A 2.0002 2.0002 0 0 0 59.75 47.65625 L 44.75 41.65625 A 2.0002 2.0002 0 0 0 43.75 41.5 z M 46 46.4375 L 53.96875 49.625 L 46 53.375 L 46 46.4375 z "/></svg>