<svg fill="#B36AE2" xmlns="http://www.w3.org/2000/svg" xmlns:xlink="http://www.w3.org/1999/xlink" version="1.1" x="0px" y="0px" viewBox="0 0 64 88" style="enable-background:new 0 0 64 88;" xml:space="preserve"><rect x="11.294" y="28.471" width="45.176" height="0.941"/><rect x="11.294" y="32.235" width="41.412" height="0.941"/><rect x="11.294" y="36" width="45.176" height="0.941"/><rect x="11.294" y="39.765" width="45.176" height="0.941"/><rect x="11.294" y="66.118" width="45.176" height="0.941"/><rect x="11.294" y="69.882" width="45.176" height="0.941"/><rect x="11.294" y="73.647" width="33.882" height="0.941"/><rect x="41.412" y="43.529" width="15.059" height="0.941"/><rect x="41.412" y="47.294" width="15.059" height="0.941"/><rect x="41.412" y="51.059" width="15.059" height="0.941"/><rect x="41.412" y="54.824" width="15.059" height="0.941"/><rect x="41.412" y="58.588" width="15.059" height="0.941"/><rect x="41.412" y="62.353" width="15.059" height="0.941"/><path d="M63.724,21.136L45.452,2.864c-0.177-0.177-0.416-0.276-0.665-0.276H4.706c-0.52,0-0.941,0.422-0.941,0.941V44H1.882  C0.842,44,0,44.842,0,45.882v15.059c0,1.04,0.842,1.882,1.882,1.882h1.882v21.647c0,0.52,0.422,0.941,0.941,0.941h58.353  c0.52,0,0.941-0.422,0.941-0.941V21.801C64,21.552,63.901,21.313,63.724,21.136z M60.397,20.471h-14.28V6.191L60.397,20.471z   M62.118,83.529H5.647V62.824h30.118c1.04,0,1.882-0.842,1.882-1.882V45.882c0-1.04-0.842-1.882-1.882-1.882H5.647V4.471h38.588  v16.941c0,0.52,0.422,0.941,0.941,0.941h16.941V83.529z M7.251,57.469v-8.103c1.262,0,2.558-0.012,3.819-0.012  c3.982,0,3.993,5.695,0,5.73H8.778v2.385H7.251z M15.594,57.469v-8.103c0.996,0,2.188,0,3.183,0c2.778,0,4.016,1.979,4.052,3.982  c0.035,2.048-1.215,4.12-4.052,4.12C17.783,57.469,16.59,57.469,15.594,57.469z M30.165,53.059v1.413h-4.063v2.998h-1.528v-8.091  h5.822v1.47h-4.295v2.211H30.165z"/><path d="M11.07,50.813H8.778v2.871h2.292C13.027,53.684,13.015,50.813,11.07,50.813z"/><path d="M18.777,50.813h-1.666v5.185h1.666c1.84,0,2.569-1.342,2.535-2.662C21.277,52.075,20.536,50.813,18.777,50.813z"/></svg>