<svg width="200" height="200" fill="#51A7F9" xmlns="http://www.w3.org/2000/svg" xmlns:xlink="http://www.w3.org/1999/xlink" version="1.1" x="0px" y="0px" viewBox="0 0 100 100" enable-background="new 0 0 100 100" xml:space="preserve"><path d="M25.625,67.833V51.896h5.214v15.937H25.625z M40.825,67.833h-4.631V51.896h6.231l2.207,7.952  c0.029,0.108,0.087,0.355,0.173,0.741c0.087,0.386,0.21,0.918,0.368,1.596c0.101-0.534,0.195-1.001,0.281-1.401  c0.087-0.4,0.162-0.701,0.228-0.903l2.261-7.984h6.221v15.937h-4.63l0.043-7.844c0-0.476,0.002-0.939,0.006-1.391  c0.003-0.45,0.009-0.917,0.016-1.4c-0.173,0.822-0.382,1.72-0.627,2.693l-0.033,0.141l-1.969,7.801h-3.57l-1.99-7.627  c-0.094-0.347-0.188-0.743-0.281-1.19s-0.217-1.053-0.368-1.817c0.021,0.686,0.038,1.272,0.049,1.764  c0.011,0.49,0.017,0.883,0.017,1.179V67.833z M71.267,67.833l-0.249-1.374c-0.577,0.613-1.272,1.069-2.088,1.368  c-0.815,0.3-1.764,0.449-2.846,0.449c-2.279,0-4.075-0.748-5.388-2.245c-1.313-1.496-1.969-3.546-1.969-6.15  c0-2.661,0.732-4.726,2.196-6.193s3.516-2.201,6.156-2.201c2.077,0,3.752,0.516,5.025,1.546c1.272,1.032,2.028,2.485,2.267,4.36  h-4.858c-0.194-0.635-0.51-1.118-0.946-1.449c-0.437-0.332-0.976-0.498-1.617-0.498c-1.024,0-1.791,0.394-2.3,1.18  c-0.508,0.786-0.763,1.958-0.763,3.516c0,1.442,0.257,2.521,0.769,3.235c0.512,0.714,1.291,1.07,2.337,1.07  c0.75,0,1.387-0.175,1.909-0.524c0.523-0.35,0.846-0.82,0.969-1.412h-2.305v-3.407h7v8.73H71.267z M85.25,2.083h-6.916H21.333H7.534  c-2.205,0-4,1.795-4,4v34.854v37.89v15.09c0,2.205,1.795,4,4,4h84.931c2.205,0,4-1.795,4-4v-15.09v-37.89V14.593L85.25,2.083z   M60,21.166h4.416c1.381,0,2.5-1.245,2.5-2.782V5.083h8.418v19.166c0,0.552-0.449,1-1,1H33.462V5.083H57.5v13.301  C57.5,19.921,58.619,21.166,60,21.166z M30.462,5.083v20.166h-5.13c-0.553,0-1-0.448-1-1V5.083H30.462z M6.534,43.938h86.931v31.89  H6.534V43.938z M93.464,93.917c0,0.551-0.449,1-1,1H7.534c-0.551,0-1-0.449-1-1v-15.09h86.931V93.917z M6.534,40.938V6.083  c0-0.551,0.449-1,1-1h13.799v19.166c0,2.206,1.793,4,4,4h49.001c2.205,0,4-1.794,4-4V5.083h5.576l9.555,10.657v25.197H6.534z"/></svg>