<svg fill="#F38F19" xmlns="http://www.w3.org/2000/svg" xmlns:xlink="http://www.w3.org/1999/xlink" version="1.1" x="0px" y="0px" viewBox="0 0 64 88" style="enable-background:new 0 0 64 88;" xml:space="preserve"><rect x="11.294" y="28.471" width="45.176" height="0.941"/><rect x="11.294" y="32.235" width="41.412" height="0.941"/><rect x="11.294" y="36" width="45.176" height="0.941"/><rect x="11.294" y="39.765" width="45.176" height="0.941"/><rect x="11.294" y="66.118" width="45.176" height="0.941"/><rect x="11.294" y="69.882" width="45.176" height="0.941"/><rect x="11.294" y="73.647" width="33.882" height="0.941"/><rect x="41.412" y="43.529" width="15.059" height="0.941"/><rect x="41.412" y="47.294" width="15.059" height="0.941"/><rect x="41.412" y="51.059" width="15.059" height="0.941"/><rect x="41.412" y="54.824" width="15.059" height="0.941"/><rect x="41.412" y="58.588" width="15.059" height="0.941"/><rect x="41.412" y="62.353" width="15.059" height="0.941"/><path d="M63.724,21.136L45.452,2.864c-0.177-0.177-0.416-0.276-0.665-0.276H4.706c-0.52,0-0.941,0.422-0.941,0.941V44H1.882  C0.842,44,0,44.842,0,45.882v15.059c0,1.04,0.842,1.882,1.882,1.882h1.882v21.647c0,0.52,0.422,0.941,0.941,0.941h58.353  c0.52,0,0.941-0.422,0.941-0.941V21.801C64,21.552,63.901,21.313,63.724,21.136z M60.397,20.471h-14.28V6.191L60.397,20.471z   M62.118,83.529H5.647V62.824h30.118c1.04,0,1.882-0.842,1.882-1.882V45.882c0-1.04-0.842-1.882-1.882-1.882H5.647V4.471h38.588  v16.941c0,0.52,0.422,0.941,0.941,0.941h16.941V83.529z M6.464,57.29V49.51c0.956,0,2.101,0,3.057,0c2.667,0,3.857,1.901,3.89,3.824  c0.033,1.967-1.167,3.957-3.89,3.957C8.565,57.29,7.42,57.29,6.464,57.29z M14.7,53.456c0-2.045,1.311-4.101,4.001-4.101  c2.679,0,4.012,2.056,3.99,4.09c-0.022,2.011-1.256,4.024-3.99,4.024S14.7,55.5,14.7,53.456z M28.227,56.09  c0.678,0,1.445-0.278,1.956-0.789l1,1.012c-0.8,0.789-1.833,1.156-2.956,1.156c-2.889,0-4.112-1.99-4.123-4.013  c-0.011-2.034,1.312-4.101,4.123-4.101c1.056,0,2.056,0.4,2.856,1.19l-0.978,0.944c-0.511-0.501-1.201-0.733-1.879-0.733  c-1.879,0-2.69,1.4-2.679,2.7C25.56,54.745,26.304,56.09,28.227,56.09z"/><path d="M21.247,53.467c0.022-1.311-0.712-2.779-2.545-2.779s-2.59,1.479-2.556,2.79c0.033,1.279,0.722,2.646,2.556,2.646  S21.224,54.745,21.247,53.467z"/><path d="M9.52,50.9h-1.6v4.979h1.6c1.768,0,2.468-1.289,2.434-2.556C11.921,52.111,11.209,50.9,9.52,50.9z"/></svg>