<svg width="200" height="200" fill="#51A7F9" xmlns="http://www.w3.org/2000/svg" xmlns:xlink="http://www.w3.org/1999/xlink" version="1.1" x="0px" y="0px" viewBox="-289 377 32 32" style="enable-background:new -289 377 32 32;" xml:space="preserve"><g><path d="M-273,377c-8.8,0-16,7.2-16,16s7.2,16,16,16s16-7.2,16-16S-264.2,377-273,377z M-273,406c-7.2,0-13-5.8-13-13s5.8-13,13-13   s13,5.8,13,13S-265.8,406-273,406z"/><circle cx="-273" cy="401" r="2"/><path d="M-273,383.5c-3,0-5.5,2.5-5.5,5.5h3c0-1.4,1.1-2.5,2.5-2.5s2.5,1.1,2.5,2.5c0,1.1-0.5,1.6-1.5,2.5c-1.1,1-2.5,2.4-2.5,5h3   c0-1.3,0.5-1.8,1.6-2.8c1.1-1,2.4-2.3,2.4-4.7h0C-267.5,386-270,383.5-273,383.5z"/></g></svg>