<svg fill="#000000" xmlns="http://www.w3.org/2000/svg" xmlns:xlink="http://www.w3.org/1999/xlink" version="1.1" x="0px" y="0px" viewBox="0 0 943.941 276.012" style="enable-background:new 0 0 943.941 276.012;" xml:space="preserve"><g><g><path d="M137.298,115.84c-8.449,2.494-16.101,3.455-22.953,3.455c-12.992,0-23.203-3.466-30.18-6.9    c-3.48-1.717-6.138-3.42-7.871-4.653c-0.867-0.617-1.504-1.115-1.895-1.435c-0.197-0.16-0.332-0.275-0.406-0.339    c-0.032-0.028-0.053-0.047-0.061-0.054l0,0c-0.002-0.001-0.002-0.002-0.002-0.003l-0.001,0.001    c-1.269-1.148-2.808-1.808-4.389-2.001c-0.361-0.133-0.729-0.254-1.109-0.349c-7.289-1.817-17.372,1.303-23.299,11.365    c6.745-3.16,11.952-4.637,13.837-5.114l0.011-0.002l0.087-0.022c0.768-0.184,1.552-0.277,2.336-0.277    c4.641,0,8.636,3.155,9.715,7.673c0.625,2.595,0.199,5.28-1.199,7.557c-1.396,2.278-3.596,3.875-6.193,4.495l-0.197,0.053    c-0.187,0.051-0.525,0.145-0.972,0.279c-0.854,0.258-2.243,0.708-3.978,1.368c-3.133,1.192-7.95,3.297-13.107,6.543    c-3.243,2.047-6.211,4.267-8.902,6.651c-1.393,9.74-1.24,19.447,0.233,32.102c1.511,7.773,4.866,12.174,8.962,14.638    c0.063,0.994,0.102,2.081,0.102,3.259c-0.007,6.846-1.272,16.405-6.656,26.652c-5.42,10.239-14.931,21.476-32.889,31.733    c-6,3.414-8.098,11.046-4.684,17.048c3.414,6,11.048,8.099,17.048,4.685c21.618-12.264,35.035-27.271,42.653-41.835    c4.227-8.038,6.691-15.846,8.051-22.896c0.688,0.763,1.381,1.547,2.08,2.356c11.037,12.767,23.167,31.211,29.081,54.694    c1.431,5.667,6.521,9.445,12.11,9.445c1.013,0,2.041-0.124,3.067-0.383c6.693-1.689,10.753-8.484,9.063-15.178    c-7.396-29.26-22.496-51.447-35.649-66.345c-6.328-7.158-12.224-12.657-16.716-16.492c-1.933-16.92,2.748-36.387,5.425-50.06    c0.038-0.131,0.069-0.263,0.104-0.393c8.664,4.146,21.023,8.137,36.389,8.135c0.008,0,0.016,0,0.023,0    c8.352,0,17.565-1.186,27.462-4.11c4.237-1.252,6.657-5.701,5.405-9.938C145.984,117.012,141.537,114.589,137.298,115.84z"/><ellipse transform="matrix(0.2268 -0.9739 0.9739 0.2268 -13.0073 138.1745)" cx="80.519" cy="77.279" rx="22.494" ry="22.495"/><path d="M61.979,127.652c0.473-0.142,0.828-0.239,1.046-0.299c0.109-0.028,0.186-0.048,0.226-0.059l0.008-0.002    c4.296-1.03,6.945-5.349,5.916-9.644c-1.028-4.296-5.346-6.944-9.642-5.916c-0.544,0.142-11.202,2.702-23.644,10.506    c-12.389,7.76-26.793,21.121-33.16,42.486c-1.264,4.234,1.145,8.691,5.379,9.953c0.764,0.228,1.533,0.336,2.291,0.337    c3.446,0,6.629-2.245,7.662-5.715c4.967-16.636,16.064-27.023,26.343-33.515c5.114-3.218,9.96-5.385,13.466-6.719    C59.62,128.399,61.037,127.938,61.979,127.652z"/></g><g><ellipse transform="matrix(0.2268 -0.9739 0.9739 0.2268 368.4633 590.1388)" cx="555.909" cy="63.006" rx="22.493" ry="22.495"/><path d="M522.035,123.408c0.012-12.437,3.618-20.535,4.34-22.032c1.71-3.447,5.148-5.577,8.976-5.577    c1.548,0,3.04,0.353,4.437,1.043c4.937,2.449,6.963,8.459,4.517,13.4c-0.017,0.044-0.075,0.19-0.159,0.403    c-0.29,0.756-0.563,1.597-0.807,2.487c-0.595,2.187-1.305,5.746-1.3,10.282c0.03,4.925,0.832,9.864,2.372,14.802    c1.247-9.854,3.381-19.361,4.884-27.037c2.869-9.953-0.885-21.865-9.42-23.992c-8.537-2.129-20.912,2.508-25.947,17.15    c-6.805,20.174-8.268,33.305-5.682,55.52c2.112,10.872,7.831,15.152,14.142,16.752c2.546,8.387,5.722,22.191,5.699,38.756    c-0.003,13.217-1.979,28.171-7.764,43.801c-2.398,6.475,0.906,13.668,7.381,16.064c1.431,0.529,2.898,0.781,4.339,0.781    c5.08,0,9.856-3.12,11.724-8.164c6.955-18.782,9.323-36.775,9.321-52.482c-0.016-12.284-1.439-23.171-3.261-32.102    c-0.13-0.123-0.266-0.238-0.391-0.369C525.467,158.077,521.98,134.973,522.035,123.408z"/><path d="M540.037,123.418c-0.003-4.664,0.704-8.361,1.37-10.811c0.333-1.224,0.659-2.134,0.874-2.691    c0.108-0.277,0.19-0.466,0.234-0.563l-0.004-0.001c1.96-3.958,0.344-8.757-3.614-10.718c-3.957-1.963-8.758-0.346-10.72,3.612    v-0.003c-0.374,0.77-4.131,8.597-4.144,21.174c-0.069,14.811,5.531,36.023,26.843,58.093c1.57,1.634,3.668,2.456,5.768,2.456    c1.994,0,3.991-0.74,5.543-2.232c3.186-3.06,3.286-8.125,0.224-11.311C543.691,150.838,540.107,134.396,540.037,123.418z"/></g><g><ellipse transform="matrix(0.483 -0.8756 0.8756 0.483 323.6481 696.5198)" cx="751.687" cy="74.172" rx="22.494" ry="22.495"/><path d="M717.007,143.634c-5.814-11.309-7.041-21.977-7.045-28.936c0.002-3.55,0.328-5.891,0.426-6.522    c0.791-4.876,4.938-8.412,9.865-8.412c0.533,0,1.074,0.043,1.605,0.131c5.41,0.872,9.127,5.991,8.283,11.407    c-0.019,0.161-0.041,0.371-0.068,0.666c-0.051,0.562-0.113,1.506-0.107,2.722c-0.004,1.74,0.121,4.252,0.633,7.221    c0.561-1.087,1.107-2.155,1.625-3.178c5.467-8.799,5.094-21.282-2.541-25.649c-7.639-4.37-20.807-3.272-29.633,9.45    c-12.033,17.564-17.012,29.804-20.563,51.885c-1.021,12.231,4.416,17.88,10.928,20.945c2.598,8.225,6.111,22.59,6.086,40.004    c-0.004,13.217-1.979,28.171-7.764,43.8c-2.396,6.475,0.906,13.666,7.383,16.063c1.43,0.529,2.896,0.78,4.338,0.781    c5.08,0,9.858-3.12,11.725-8.163c6.955-18.783,9.32-36.776,9.318-52.482c-0.027-22.584-4.81-40.462-8.08-50.084    c1.018-6.156,2.965-12.394,5.352-18.441C718.12,145.735,717.531,144.661,717.007,143.634z"/><path d="M728.081,111.774c0.029-0.316,0.055-0.544,0.07-0.67c0.01-0.062,0.014-0.101,0.016-0.111l-0.002-0.001    c0.678-4.343-2.281-8.423-6.627-9.124c-4.359-0.707-8.467,2.256-9.172,6.62l-0.002-0.003c-0.055,0.348-0.4,2.608-0.402,6.211    c0.006,6.288,1.043,16.779,6.826,28.028c5.744,11.252,16.416,23.019,34.35,31.275c1.088,0.503,2.231,0.741,3.356,0.741    c3.021,0,5.912-1.72,7.266-4.643c1.855-4.009,0.109-8.764-3.898-10.618c-14.951-6.966-22.547-15.814-26.85-24.077    c-4.262-8.264-5.051-16.185-5.047-20.706C727.962,113.413,728.025,112.412,728.081,111.774z"/></g><g><path d="M938.941,204.342h-18.828c2.686-3.079,4.522-7.524,4.77-14.038c-0.852-22.35-4.313-35.102-14.131-53.993    c-7.221-13.697-20.16-16.38-28.27-12.969c-6.08,2.559-8.658,10.139-7.73,17.731c2.348-2.929,3.4-5.346,3.412-5.379    c1.473-3.8,5.219-6.37,9.32-6.37c1.227,0,2.434,0.225,3.588,0.669c2.494,0.956,4.463,2.827,5.549,5.268    c1.086,2.44,1.156,5.158,0.199,7.651c-1.012,2.509-4.021,8.862-10.771,15.39c-1.133,1.107-2.563,2.37-4.269,3.676    c2.732,7.72,5.416,16.217,6.928,24.696h-28.428v-5.596H735.761v6.406h6.9l0.002,85.855h14.945v-71.801h74.746    c0.049,0.257,0.086,0.515,0.152,0.77l5.924,22.865v48.166h14.947v-0.153c2.197,1.789,4.971,2.825,7.887,2.825    c1.037,0,2.092-0.13,3.143-0.402c6.684-1.73,10.697-8.551,8.965-15.233l-12.613-48.7h15.182v2.666c0,2.762,2.238,5,5,5h3.328    l19.025,25.578l-20.396,27.42h13.293l13.75-18.484l13.75,18.484h13.293l-20.396-27.42l19.027-25.578h3.326c2.762,0,5-2.238,5-5v-5    C943.941,206.58,941.702,204.342,938.941,204.342z M909.941,247.342c-1.748,0-3.166-1.418-3.166-3.166    c0-1.75,1.418-3.167,3.166-3.167c1.75,0,3.166,1.417,3.166,3.167C913.107,245.924,911.691,247.342,909.941,247.342z     M909.941,235.983l-12.379-16.642h24.758L909.941,235.983z"/><path d="M848.292,145.422l-3.125-2.496l-7.262,9.09c1.574,0.261,3.123,0.467,4.633,0.607L848.292,145.422z"/><path d="M825.786,167.182l-3.092,3.869l3.125,2.496l2.873-3.595C827.538,169.227,826.552,168.282,825.786,167.182z"/><path d="M890.353,131.859c-4.117-1.585-8.74,0.468-10.328,4.584l-0.006-0.002c-0.236,0.589-2.455,5.398-7.418,9.785    c-5.014,4.378-12.469,8.6-24.959,8.654c-3.594,0-7.621-0.371-12.121-1.247c-4.336-0.846-8.537,1.985-9.381,6.324    c-0.844,4.336,1.988,8.535,6.324,9.381c5.424,1.057,10.479,1.542,15.178,1.542c0.078,0,0.158,0.001,0.236,0.001    c17.35,0,29.564-6.965,36.779-14.017c7.316-7.078,10.012-13.978,10.293-14.669C896.536,138.071,894.48,133.442,890.353,131.859z     M880.019,136.455C880.019,136.456,880.019,136.456,880.019,136.455l-0.002-0.001L880.019,136.455z"/><rect x="801.077" y="174.819" width="51" height="2.5"/><path d="M828.257,116.348c0.641,0.91,3.66,0.024,8.076-2.157c4.904-2.423,11.535-6.445,18.565-11.394    c5.623-3.957,10.598-7.873,14.379-11.227c-3.537,4.138-8.924,9.478-15.262,14.978c-2.529,2.196-4.91,4.43-7.115,6.58    c2.748,4.354,6.994,7.796,12.291,9.455c11.857,3.711,24.476-2.892,28.189-14.747c3.713-11.856-2.893-24.479-14.748-28.188    c-11.855-3.709-24.477,2.893-28.189,14.75c-0.652,2.086-0.981,4.195-1.022,6.276c-0.676,0.52-1.338,1.034-1.98,1.542    C832.747,109.089,827.218,114.868,828.257,116.348z"/></g><g><ellipse transform="matrix(0.2268 -0.9739 0.9739 0.2268 432.9072 671.3032)" cx="639.241" cy="63.006" rx="22.493" ry="22.495"/><path d="M617.575,95.861c0.375-0.042,0.743-0.062,1.112-0.062c5.073,0,9.327,3.793,9.92,8.83c0.008,0.049,0.015,0.105,0.022,0.171    l0.007,0.047c0.024,0.147,0.057,0.358,0.105,0.629c0.194,1.062,0.446,2.213,0.753,3.413c0.442,1.742,1.136,4.146,2.172,7.069    c0.336-1.653,0.661-3.258,0.959-4.779c2.869-9.953-0.885-21.865-9.42-23.992c-8.537-2.129-20.912,2.508-25.947,17.15    c-6.805,20.174-8.268,33.306-5.682,55.52c2.112,10.871,7.83,15.151,14.142,16.752c2.546,8.387,5.722,22.193,5.7,38.758    c-0.004,13.219-1.979,28.171-7.765,43.799c-2.396,6.475,0.908,13.667,7.383,16.064c1.431,0.529,2.896,0.78,4.338,0.78    c5.08,0.001,9.857-3.119,11.726-8.163c6.954-18.783,9.319-36.775,9.317-52.481c-0.031-25.045-5.91-44.311-9.088-52.936    c-0.496-3.705-0.646-7.547-0.568-11.431c-16.2-25.753-18.008-43.9-18.029-44.148C608.133,101.423,612.096,96.471,617.575,95.861z"/><path d="M632.395,123.274c-2.571-5.952-4.031-10.707-4.838-13.892c-0.404-1.592-0.646-2.791-0.782-3.551    c-0.068-0.381-0.109-0.648-0.132-0.802c-0.006-0.053-0.012-0.091-0.016-0.116c-0.491-4.388-4.442-7.549-8.829-7.064    c-4.392,0.487-7.558,4.44-7.072,8.83c0.114,1.323,4.292,34.919,42.684,74.833c1.569,1.634,3.667,2.456,5.768,2.456    c1.995,0,3.991-0.741,5.543-2.231c3.185-3.062,3.285-8.126,0.227-11.312C647.121,151.873,637.542,135.178,632.395,123.274z"/></g><g><path d="M457.68,130.547c-18.146-8.423-34.207-18.275-45.672-25.999c-5.73-3.862-10.318-7.189-13.451-9.54    c-1.566-1.173-2.77-2.102-3.575-2.73c-0.4-0.313-0.702-0.553-0.898-0.709c-0.196-0.157-0.27-0.218-0.27-0.218    c-1.582-1.285-3.508-1.857-5.397-1.773c-0.281-0.031-0.566-0.05-0.855-0.05h-37.995c-2.552-1.439-7.294-4.445-11.799-9.012    c-6.444-6.571-12.28-15.725-12.307-28.739c0.005-7.823,2.132-17.329,8.254-28.893c2.068-3.905,0.583-8.746-3.322-10.816    c-3.903-2.068-8.745-0.582-10.814,3.322c-7.117,13.407-10.124,25.592-10.119,36.387c-0.024,18.763,9.092,32.43,17.758,40.81    c5.369,5.222,10.617,8.658,13.98,10.59v43.533v18.939v98c0,6.83,5.537,12.363,12.363,12.363c6.828,0,12.365-5.533,12.365-12.363    v-90.271h4.635v90.271c0,6.83,5.537,12.363,12.363,12.363c6.828,0,12.365-5.533,12.365-12.363v-98v-18.939v-34.278    c11.848,8.438,31.861,21.571,55.652,32.63c1.09,0.506,2.236,0.746,3.363,0.746c3.019,0,5.907-1.717,7.262-4.635    C463.427,137.166,461.689,132.408,457.68,130.547z M372.645,107.304h15v5h-15V107.304z"/><path d="M359.731,53.906c6.696,1.563,12.93,2.67,17.949,3.26c-5.441,0.114-13.012-0.353-21.335-1.422    c-3.323-0.427-6.575-0.718-9.647-0.932c-1.42,4.949-1.164,10.408,1.124,15.467c5.122,11.319,18.448,16.343,29.768,11.224    c11.32-5.12,16.345-18.45,11.224-29.768c-5.123-11.317-18.45-16.344-29.771-11.223c-1.991,0.901-3.784,2.061-5.364,3.415    c-0.838-0.159-1.662-0.31-2.47-0.451c-10.915-1.915-18.909-2.195-19.321-0.435c-0.253,1.084,2.417,2.747,6.986,4.592    C343.946,49.682,351.36,51.953,359.731,53.906z"/><path d="M321.934,4.838c-2.123-0.059-5.148,1.06-6.559,5.05c-0.19,0.519,0.075,1.093,0.594,1.283    c0.113,0.042,0.23,0.062,0.344,0.062c0.408,0,0.79-0.251,0.939-0.657c1.244-3.244,3.092-3.682,4.682-3.739    c0.598,0,1.14,0.097,1.521,0.195c0.384,0.096,0.569,0.182,0.572,0.178c0.507,0.212,1.095-0.028,1.306-0.538    c0.215-0.508-0.025-1.095-0.535-1.307V5.362C324.725,5.334,323.553,4.842,321.934,4.838z"/><path d="M324.82,0.545c-0.068-0.021-1.525-0.541-3.55-0.543c-3.148-0.064-7.863,1.467-9.9,7.936    c-0.172,0.526,0.117,1.09,0.642,1.261c0.103,0.033,0.206,0.049,0.309,0.049c0.422,0,0.815-0.269,0.953-0.693    c1.887-5.655,5.35-6.488,7.996-6.552c0.836,0,1.575,0.111,2.094,0.22c0.518,0.111,0.783,0.213,0.785,0.208    c0.518,0.185,1.09-0.086,1.277-0.605C325.612,1.304,325.341,0.731,324.82,0.545z"/><path d="M339.515,12.473c-0.439-0.337-1.067-0.254-1.402,0.187c-0.337,0.437-0.253,1.065,0.186,1.402    c1.951,1.515,2.392,2.904,2.408,4.131c0.002,0.916-0.295,1.768-0.609,2.386c-0.156,0.308-0.313,0.558-0.426,0.723    c-0.114,0.167-0.17,0.228-0.168,0.229c-0.354,0.422-0.298,1.055,0.127,1.409c0.188,0.156,0.415,0.232,0.642,0.232    c0.286,0,0.569-0.122,0.768-0.359c0.054-0.086,1.645-1.928,1.669-4.62C342.726,16.383,341.875,14.253,339.515,12.473z"/><path d="M342.563,9.226c-0.451-0.319-1.074-0.212-1.393,0.24c-0.319,0.451-0.21,1.075,0.24,1.395    c3.436,2.448,4.261,4.926,4.28,7.071c0.002,1.433-0.414,2.737-0.839,3.672c-0.213,0.468-0.425,0.844-0.579,1.097    c-0.157,0.253-0.243,0.362-0.241,0.364c-0.332,0.44-0.24,1.068,0.202,1.399c0.18,0.135,0.39,0.2,0.599,0.2    c0.305,0,0.605-0.139,0.803-0.4l-0.002-0.002c0.051-0.086,2.042-2.692,2.059-6.33C347.712,15.2,346.446,11.936,342.563,9.226z"/></g><g><path d="M235.395,196.789c-0.489-0.152-0.973-0.33-1.441-0.56c-12.484-6.093-21.75-14.221-27.535-24.159    c-4.613-7.883-6.951-16.693-6.941-26.186c0.027-10.69,2.895-18.69,4.125-21.634l0.04-0.097c1.625-3.68,5.217-6.017,9.173-6.017    c1.398,0,2.759,0.289,4.047,0.858c5.021,2.221,7.314,8.124,5.109,13.154c-0.078,0.204-0.166,0.425-0.273,0.725    c-0.219,0.605-0.55,1.597-0.885,2.865c-0.611,2.311-1.338,5.95-1.336,10.146c0.004,3.202,0.438,6.254,1.262,9.144    c2.207-6.898,4.63-13.365,6.56-18.869c4.268-9.438,2.262-21.766-5.881-25.096c-8.143-3.33-21.057-0.518-28.137,13.252    c-9.633,18.988-12.959,31.775-13.586,54.132c0.368,7.65,2.894,12.429,6.407,15.473c0.605,1.41,1.459,2.688,2.516,3.777    c1.141,3.171,2.231,7.55,2.219,12.605c-0.02,5.438-1.148,11.7-4.994,18.934c-3.861,7.219-10.569,15.497-22.258,24.273    c-5.521,4.142-6.643,11.979-2.498,17.5c2.455,3.273,6.209,5,10.01,5.001c2.609,0,5.24-0.814,7.49-2.501    c14.063-10.542,23.479-21.577,29.307-32.491c5.384-10.04,7.602-19.898,7.902-28.536c8.5,8.558,18.408,24.146,24.371,53.499    c1.197,5.932,6.41,10.029,12.237,10.029c0.821,0.001,1.653-0.081,2.487-0.249c6.768-1.365,11.146-7.958,9.781-14.726    C258.399,229.723,247.182,209.485,235.395,196.789z"/><ellipse transform="matrix(0.3642 -0.9313 0.9313 0.3642 69.9369 269.2967)" cx="232.193" cy="83.429" rx="22.494" ry="22.496"/><path d="M218.88,135.228c0.35-1.323,0.695-2.363,0.937-3.033c0.12-0.334,0.217-0.579,0.273-0.718    c0.026-0.065,0.044-0.108,0.052-0.127c1.768-4.034-0.059-8.742-4.09-10.525c-4.041-1.788-8.766,0.037-10.554,4.076    c-0.247,0.617-3.989,9.034-4.023,20.987c-0.006,7.469,1.552,16.431,6.672,25.177c5.098,8.754,13.699,17.03,26.689,23.37    c1.133,0.555,2.332,0.817,3.514,0.817c2.958,0,5.802-1.647,7.191-4.482c1.943-3.968,0.302-8.758-3.663-10.701    c-10.646-5.241-16.485-11.249-19.919-17.081c-3.411-5.843-4.476-11.773-4.481-17.1    C217.475,141.657,218.179,137.876,218.88,135.228z"/></g></g></svg>